<?xml version="1.0" encoding="utf-8"?>
<!-- Generator: Adobe Illustrator 21.1.0, SVG Export Plug-In . SVG Version: 6.00 Build 0)  -->
<svg version="1.1" id="Capa_1" xmlns="http://www.w3.org/2000/svg" xmlns:xlink="http://www.w3.org/1999/xlink" x="0px" y="0px"
	 viewBox="0 0 26 26" style="enable-background:new 0 0 26 26;" xml:space="preserve">
<style type="text/css">
	.st0{fill:#CB2228;}
	.st1{fill:#9E000C;}
</style>
<path class="st0" d="M13,6.7c1.4,0,2.5-1.1,2.5-2.5S14.4,1.8,13,1.8s-2.5,1.1-2.5,2.5S11.6,6.7,13,6.7z"/>
<path class="st0" d="M15.5,7.5c0,0-0.6-0.2-0.6-0.2c-0.2-0.1-0.5,0-0.7,0.1L13,8.4l-1.2-0.9c-0.2-0.1-0.4-0.2-0.7-0.1
	c0,0-0.6,0.2-0.6,0.2c-1,0.3-1.7,1.3-1.7,2.3v3.7c0,0.1,0,0.3,0.1,0.4l1.3,1.9v5c0,0.4,0.3,0.7,0.7,0.7h4.2c0.4,0,0.7-0.3,0.7-0.7
	v-5l1.3-1.9c0.1-0.1,0.1-0.3,0.1-0.4V9.8C17.2,8.8,16.5,7.9,15.5,7.5z"/>
<path class="st1" d="M17.4,18.6c-0.2,0-0.4,0.1-0.4,0.3c0,0.2,0.1,0.4,0.3,0.4c3.8,0.4,5.8,1.6,5.8,2.3c0,1-3.8,2.3-10.1,2.3
	S2.9,22.6,2.9,21.7c0-0.7,2-1.9,5.8-2.3c0.2,0,0.3-0.2,0.3-0.4c0-0.2-0.2-0.3-0.4-0.3c-3.8,0.4-6.4,1.7-6.4,3.1
	c0,1.5,3.7,3.1,10.8,3.1s10.8-1.5,10.8-3.1C23.8,20.3,21.2,19,17.4,18.6z"/>
</svg>
